<?xml version="1.0" encoding="utf-8"?>
<!-- Generator: Adobe Illustrator 26.1.0, SVG Export Plug-In . SVG Version: 6.00 Build 0)  -->
<svg version="1.1" id="Layer_1" xmlns="http://www.w3.org/2000/svg" xmlns:xlink="http://www.w3.org/1999/xlink" x="0px" y="0px"
	 viewBox="0 0 406 73" style="enable-background:new 0 0 406 73;" xml:space="preserve">
<style type="text/css">
	.st0{fill:#EA9E30;}
	.st1{fill:#007EBE;}
	.st2{fill:#008ECE;}
	.st3{fill:#009CDD;}
	.st4{fill:#00A5E5;}
	.st5{fill:#00ACEB;}
	.st6{fill:#21BCEC;}
	.st7{fill:#FFFFFF;}
</style>
<path class="st0" d="M37.17,49.93c-2.79,0-5.51-0.88-7.77-2.51c-2.26-1.63-3.94-3.93-4.81-6.57l-15.4,3.73
	c1.33,4.5,3.76,8.61,7.06,11.95c3.31,3.34,7.4,5.82,11.9,7.21c4.5,1.39,9.28,1.64,13.91,0.75c4.63-0.9,8.96-2.92,12.61-5.89
	l-9.02-11.72C43.26,48.85,40.26,49.93,37.17,49.93z"/>
<path class="st1" d="M23.93,36.75c0-2.14,0.53-4.25,1.53-6.14c1.01-1.89,2.46-3.51,4.24-4.72L18.83,14.22
	c-4.47,3.52-7.78,8.29-9.5,13.7c-1.72,5.41-1.77,11.21-0.14,16.65l15.4-3.73C24.15,39.52,23.93,38.14,23.93,36.75z"/>
<path class="st2" d="M37.17,23.57c2.13,0.01,4.24,0.53,6.12,1.53l7.26-13.46c-4.94-2.77-10.61-4-16.26-3.54
	c-5.65,0.46-11.04,2.59-15.47,6.12L29.7,25.87C31.9,24.36,34.51,23.56,37.17,23.57"/>
<path class="st3" d="M48.93,30.7l12.08-9.05c-2.57-4.17-6.16-7.62-10.44-10.02l-7.27,13.45C45.7,26.35,47.67,28.3,48.93,30.7z"/>
<path class="st0" d="M93.34,23.57c3.13,0,6.16,1.11,8.55,3.12c2.39,2.02,3.98,4.81,4.49,7.89l15.11-3.49
	c-0.91-4.74-3.02-9.17-6.12-12.88c-3.11-3.71-7.11-6.56-11.63-8.3c-4.52-1.74-9.41-2.3-14.21-1.64c-4.8,0.66-9.35,2.54-13.22,5.44
	l9.43,12.25C87.96,24.4,90.61,23.56,93.34,23.57z"/>
<path class="st4" d="M81.91,43.38l-12.12,9.19c3.58,5.21,8.8,9.1,14.83,11.05c1.58-4.83,3.65-10.84,4.79-14.31
	c-3.16-0.98-5.84-3.09-7.51-5.93"/>
<path class="st5" d="M93.34,49.93c-1.33,0-2.65-0.21-3.91-0.61c-1.14,3.47-3.21,9.47-4.79,14.31c4.43,1.43,9.15,1.75,13.73,0.94
	c4.59-0.81,8.9-2.73,12.57-5.59l-9.55-11.79c-2.3,1.77-5.13,2.73-8.05,2.73"/>
<path class="st6" d="M106.58,36.75c0,2.02-0.47,4.02-1.37,5.83s-2.21,3.39-3.83,4.62l9.56,11.78c3.45-2.65,6.24-6.06,8.16-9.96
	c1.92-3.9,2.92-8.18,2.93-12.52c0-1.82-0.18-3.63-0.53-5.41l-15.11,3.48c0.13,0.72,0.19,1.44,0.2,2.17"/>
<path class="st7" d="M147.35,47.48V24.52h3.7l9.66,15.14V24.52h4.61v22.96h-3.7l-9.63-15.14v15.14H147.35z"/>
<path class="st7" d="M180.97,47.64c-0.57-0.01-1.15-0.05-1.71-0.14c-0.65-0.1-1.28-0.31-1.85-0.64c-0.62-0.36-1.12-0.88-1.46-1.5
	c-0.39-0.67-0.58-1.6-0.58-2.78V29.76c-0.03-0.87,0.13-1.74,0.47-2.54c0.27-0.63,0.7-1.19,1.25-1.61c0.51-0.39,1.09-0.67,1.71-0.84
	c0.6-0.16,1.22-0.25,1.85-0.25c1.56,0,2.93,0.02,4.13,0.06c1.19,0.04,2.27,0.09,3.22,0.14c0.96,0.05,1.83,0.12,2.62,0.2v3.85h-8.6
	c-0.54-0.03-1.07,0.13-1.5,0.47c-0.35,0.31-0.53,0.79-0.53,1.43v3.31l9.13,0.26v3.63l-9.13,0.26v3.16
	c-0.02,0.43,0.07,0.87,0.26,1.26c0.16,0.28,0.41,0.5,0.71,0.62c0.3,0.11,0.63,0.17,0.95,0.17h8.69v3.84
	c-0.92,0.11-1.93,0.19-3.04,0.26c-1.11,0.07-2.23,0.12-3.36,0.16C183.07,47.62,181.99,47.63,180.97,47.64z"/>
<path class="st7" d="M205.03,47.48V28.65h-6.34v-4.13h17.29v4.13h-6.35v18.83H205.03z"/>
<path class="st7" d="M224.72,47.48V24.52h4.61v9.56h8.69v-9.56h4.64v22.96h-4.64V38.2h-8.69v9.28H224.72z"/>
<path class="st7" d="M258.47,47.64c-0.57-0.01-1.15-0.05-1.71-0.14c-0.65-0.1-1.28-0.31-1.85-0.64c-0.62-0.36-1.12-0.88-1.46-1.5
	c-0.38-0.67-0.58-1.6-0.57-2.78V29.76c-0.03-0.87,0.12-1.74,0.45-2.54c0.27-0.63,0.7-1.19,1.25-1.61c0.51-0.39,1.09-0.67,1.71-0.84
	c0.6-0.16,1.22-0.25,1.85-0.25c1.56,0,2.93,0.02,4.13,0.06c1.19,0.04,2.27,0.09,3.23,0.14c0.95,0.05,1.83,0.12,2.62,0.2v3.85h-8.6
	c-0.54-0.03-1.07,0.13-1.49,0.47c-0.35,0.31-0.53,0.79-0.53,1.43v3.31l9.13,0.26v3.63l-9.13,0.26v3.16
	c-0.02,0.43,0.07,0.87,0.26,1.26c0.16,0.28,0.41,0.5,0.72,0.62c0.3,0.11,0.63,0.17,0.95,0.17h8.7v3.84
	c-0.92,0.11-1.93,0.19-3.04,0.26c-1.11,0.07-2.23,0.12-3.36,0.16C260.56,47.62,259.48,47.63,258.47,47.64z"/>
<path class="st7" d="M277.69,47.48V24.52h9.54c0.86-0.01,1.72,0.1,2.55,0.33c0.78,0.21,1.49,0.6,2.09,1.13
	c0.65,0.61,1.14,1.38,1.42,2.23c0.38,1.18,0.55,2.42,0.52,3.66c0.02,0.91-0.09,1.82-0.31,2.7c-0.16,0.66-0.44,1.28-0.83,1.84
	c-0.32,0.45-0.71,0.84-1.17,1.15c-0.42,0.28-0.87,0.52-1.34,0.72l4.3,9.2h-4.7l-3.7-8.5c-0.25,0-0.53-0.01-0.86-0.02
	c-0.32-0.01-0.65-0.02-0.98-0.02h-1c-0.33,0-0.63,0-0.9-0.03v8.57L277.69,47.48z M282.3,35.29h4.11c0.38,0,0.76-0.05,1.12-0.16
	c0.33-0.1,0.63-0.29,0.87-0.54c0.27-0.3,0.47-0.65,0.57-1.04c0.15-0.55,0.22-1.11,0.2-1.68c0.01-0.54-0.05-1.08-0.2-1.6
	c-0.1-0.37-0.3-0.72-0.57-0.99c-0.24-0.24-0.54-0.41-0.87-0.5c-0.37-0.1-0.74-0.14-1.12-0.14h-4.11V35.29z"/>
<path class="st7" d="M302.84,47.48l2.68-22.96h4.43l5.3,17.6l5.27-17.6h4.39l2.71,22.96h-4.46l-1.99-16.91l0.71,0.06l-4.52,16.85
	h-4.33l-4.58-16.85l0.79-0.03l-1.93,16.88H302.84z"/>
<path class="st7" d="M337.21,47.48V24.52h4.61v22.96H337.21z"/>
<path class="st7" d="M352.19,47.48V24.52h3.7l9.66,15.14V24.52h4.61v22.96h-3.7l-9.64-15.14v15.14H352.19z"/>
<path class="st7" d="M380.21,47.48V24.52h9.75c1.56,0,2.86,0.27,3.89,0.82c1.03,0.54,1.89,1.36,2.48,2.37
	c0.65,1.13,1.09,2.36,1.29,3.64c0.26,1.54,0.39,3.1,0.38,4.65c0,2.59-0.3,4.73-0.89,6.42c-0.59,1.7-1.48,2.96-2.67,3.8
	c-1.18,0.84-2.68,1.26-4.49,1.26L380.21,47.48z M384.82,43.35h4.67c0.42,0.02,0.83-0.04,1.22-0.18c0.39-0.14,0.75-0.36,1.05-0.64
	c0.56-0.55,0.97-1.37,1.23-2.47c0.28-1.34,0.41-2.7,0.39-4.07c0.02-1.23-0.06-2.46-0.25-3.68c-0.11-0.79-0.36-1.55-0.73-2.25
	c-0.27-0.49-0.7-0.88-1.22-1.11c-0.54-0.22-1.12-0.32-1.7-0.31h-4.67V43.35z"/>
</svg>
