<?xml version="1.0" encoding="utf-8"?>
<!-- Generator: Adobe Illustrator 26.1.0, SVG Export Plug-In . SVG Version: 6.00 Build 0)  -->
<svg version="1.1" id="Layer_1" xmlns="http://www.w3.org/2000/svg" xmlns:xlink="http://www.w3.org/1999/xlink" x="0px" y="0px"
	 viewBox="0 0 406 73" style="enable-background:new 0 0 406 73;" xml:space="preserve">
<style type="text/css">
	.st0{fill:#EA9E30;}
	.st1{fill:#007EBE;}
	.st2{fill:#008ECE;}
	.st3{fill:#009CDD;}
	.st4{fill:#00A5E5;}
	.st5{fill:#00ACEB;}
	.st6{fill:#21BCEC;}
</style>
<path class="st0" d="M37.2,49.9c-2.8,0-5.5-0.9-7.8-2.5c-2.3-1.6-3.9-3.9-4.8-6.6L9.2,44.6c1.3,4.5,3.8,8.6,7.1,12
	c3.3,3.3,7.4,5.8,11.9,7.2c4.5,1.4,9.3,1.6,13.9,0.8c4.6-0.9,9-2.9,12.6-5.9l-9-11.7C43.3,48.8,40.3,49.9,37.2,49.9z"/>
<path class="st1" d="M23.9,36.7c0-2.1,0.5-4.2,1.5-6.1c1-1.9,2.5-3.5,4.2-4.7L18.8,14.2c-4.5,3.5-7.8,8.3-9.5,13.7
	S7.6,39.1,9.2,44.6l15.4-3.7C24.1,39.5,23.9,38.1,23.9,36.7z"/>
<path class="st2" d="M37.2,23.6c2.1,0,4.2,0.5,6.1,1.5l7.3-13.5c-4.9-2.8-10.6-4-16.3-3.5c-5.6,0.5-11,2.6-15.5,6.1l10.9,11.6
	C31.9,24.4,34.5,23.6,37.2,23.6"/>
<path class="st3" d="M48.9,30.7l12.1-9c-2.6-4.2-6.2-7.6-10.4-10l-7.3,13.4C45.7,26.3,47.7,28.3,48.9,30.7z"/>
<path class="st0" d="M93.3,23.6c3.1,0,6.2,1.1,8.6,3.1c2.4,2,4,4.8,4.5,7.9l15.1-3.5c-0.9-4.7-3-9.2-6.1-12.9
	c-3.1-3.7-7.1-6.6-11.6-8.3s-9.4-2.3-14.2-1.6s-9.3,2.5-13.2,5.4L85.7,26C88,24.4,90.6,23.6,93.3,23.6z"/>
<path class="st4" d="M81.9,43.4l-12.1,9.2c3.6,5.2,8.8,9.1,14.8,11c1.6-4.8,3.7-10.8,4.8-14.3C86.2,48.3,83.6,46.2,81.9,43.4"/>
<path class="st5" d="M93.3,49.9c-1.3,0-2.7-0.2-3.9-0.6c-1.1,3.5-3.2,9.5-4.8,14.3c4.4,1.4,9.2,1.8,13.7,0.9
	c4.6-0.8,8.9-2.7,12.6-5.6l-9.6-11.8C99.1,49,96.3,49.9,93.3,49.9"/>
<path class="st6" d="M106.6,36.7c0,2-0.5,4-1.4,5.8s-2.2,3.4-3.8,4.6l9.6,11.8c3.4-2.7,6.2-6.1,8.2-10s2.9-8.2,2.9-12.5
	c0-1.8-0.2-3.6-0.5-5.4l-15.1,3.5C106.5,35.3,106.6,36,106.6,36.7"/>
<path d="M147.4,47.5v-23h3.7l9.7,15.1V24.5h4.6v23h-3.7L152,32.3v15.1H147.4z"/>
<path d="M181,47.6c-0.6,0-1.1,0-1.7-0.1c-0.6-0.1-1.3-0.3-1.9-0.6c-0.6-0.4-1.1-0.9-1.5-1.5c-0.4-0.7-0.6-1.6-0.6-2.8V29.8
	c0-0.9,0.1-1.7,0.5-2.5c0.3-0.6,0.7-1.2,1.2-1.6c0.5-0.4,1.1-0.7,1.7-0.8c0.6-0.2,1.2-0.2,1.9-0.2c1.6,0,2.9,0,4.1,0.1
	c1.2,0,2.3,0.1,3.2,0.1c1,0,1.8,0.1,2.6,0.2v3.9H182c-0.5,0-1.1,0.1-1.5,0.5c-0.4,0.3-0.5,0.8-0.5,1.4V34l9.1,0.3v3.6l-9.1,0.3v3.2
	c0,0.4,0.1,0.9,0.3,1.3c0.2,0.3,0.4,0.5,0.7,0.6c0.3,0.1,0.6,0.2,0.9,0.2h8.7v3.8c-0.9,0.1-1.9,0.2-3,0.3s-2.2,0.1-3.4,0.2
	C183.1,47.6,182,47.6,181,47.6z"/>
<path d="M205,47.5V28.6h-6.3v-4.1H216v4.1h-6.4v18.8C209.6,47.5,205,47.5,205,47.5z"/>
<path d="M224.7,47.5v-23h4.6v9.6h8.7v-9.6h4.6v23H238v-9.3h-8.7v9.3H224.7z"/>
<path d="M258.5,47.6c-0.6,0-1.1,0-1.7-0.1c-0.6-0.1-1.3-0.3-1.9-0.6c-0.6-0.4-1.1-0.9-1.5-1.5c-0.4-0.7-0.6-1.6-0.6-2.8V29.8
	c0-0.9,0.1-1.7,0.4-2.5c0.3-0.6,0.7-1.2,1.2-1.6c0.5-0.4,1.1-0.7,1.7-0.8c0.6-0.2,1.2-0.2,1.9-0.2c1.6,0,2.9,0,4.1,0.1
	c1.2,0,2.3,0.1,3.2,0.1c1,0,1.8,0.1,2.6,0.2v3.9h-8.6c-0.5,0-1.1,0.1-1.5,0.5c-0.4,0.3-0.5,0.8-0.5,1.4V34l9.1,0.3v3.6l-9.1,0.3v3.2
	c0,0.4,0.1,0.9,0.3,1.3c0.2,0.3,0.4,0.5,0.7,0.6c0.3,0.1,0.6,0.2,1,0.2h8.7v3.8c-0.9,0.1-1.9,0.2-3,0.3c-1.1,0.1-2.2,0.1-3.4,0.2
	C260.6,47.6,259.5,47.6,258.5,47.6z"/>
<path d="M277.7,47.5v-23h9.5c0.9,0,1.7,0.1,2.5,0.3c0.8,0.2,1.5,0.6,2.1,1.1c0.6,0.6,1.1,1.4,1.4,2.2c0.4,1.2,0.5,2.4,0.5,3.7
	c0,0.9-0.1,1.8-0.3,2.7c-0.2,0.7-0.4,1.3-0.8,1.8c-0.3,0.5-0.7,0.8-1.2,1.2c-0.4,0.3-0.9,0.5-1.3,0.7l4.3,9.2h-4.7l-3.7-8.5
	c-0.2,0-0.5,0-0.9,0c-0.3,0-0.6,0-1,0h-1c-0.3,0-0.6,0-0.9,0v8.6L277.7,47.5z M282.3,35.3h4.1c0.4,0,0.8,0,1.1-0.2
	c0.3-0.1,0.6-0.3,0.9-0.5c0.3-0.3,0.5-0.7,0.6-1c0.1-0.5,0.2-1.1,0.2-1.7c0-0.5,0-1.1-0.2-1.6c-0.1-0.4-0.3-0.7-0.6-1
	c-0.2-0.2-0.5-0.4-0.9-0.5c-0.4-0.1-0.7-0.1-1.1-0.1h-4.1V35.3z"/>
<path d="M302.8,47.5l2.7-23h4.4l5.3,17.6l5.3-17.6h4.4l2.7,23h-4.5l-2-16.9l0.7,0.1l-4.5,16.9H313l-4.6-16.9l0.8,0l-1.9,16.9
	C307.3,47.5,302.8,47.5,302.8,47.5z"/>
<path d="M337.2,47.5v-23h4.6v23H337.2z"/>
<path d="M352.2,47.5v-23h3.7l9.7,15.1V24.5h4.6v23h-3.7l-9.6-15.1v15.1H352.2z"/>
<path d="M380.2,47.5v-23h9.8c1.6,0,2.9,0.3,3.9,0.8c1,0.5,1.9,1.4,2.5,2.4c0.6,1.1,1.1,2.4,1.3,3.6c0.3,1.5,0.4,3.1,0.4,4.7
	c0,2.6-0.3,4.7-0.9,6.4c-0.6,1.7-1.5,3-2.7,3.8c-1.2,0.8-2.7,1.3-4.5,1.3L380.2,47.5z M384.8,43.3h4.7c0.4,0,0.8,0,1.2-0.2
	s0.8-0.4,1-0.6c0.6-0.5,1-1.4,1.2-2.5c0.3-1.3,0.4-2.7,0.4-4.1c0-1.2-0.1-2.5-0.2-3.7c-0.1-0.8-0.4-1.5-0.7-2.2
	c-0.3-0.5-0.7-0.9-1.2-1.1c-0.5-0.2-1.1-0.3-1.7-0.3h-4.7L384.8,43.3L384.8,43.3z"/>
</svg>
